<svg width="53" height="53" viewBox="0 0 53 53" fill="none" xmlns="http://www.w3.org/2000/svg">
<path d="M26.5 4.41667C23.6 4.41667 20.7284 4.98787 18.0491 6.09767C15.3698 7.20746 12.9354 8.8341 10.8847 10.8847C6.7433 15.0262 4.41667 20.6431 4.41667 26.5C4.41667 36.2608 10.7546 44.5421 19.5217 47.4792C20.6258 47.6558 20.9792 46.9713 20.9792 46.375V42.6429C14.8621 43.9679 13.5592 39.6838 13.5592 39.6838C12.5433 37.1221 11.1079 36.4375 11.1079 36.4375C9.09834 35.0683 11.2625 35.1125 11.2625 35.1125C13.4708 35.2671 14.6413 37.3871 14.6413 37.3871C16.5625 40.7438 19.8088 39.75 21.0675 39.22C21.2663 37.7846 21.8404 36.8129 22.4588 36.2608C17.5563 35.7088 12.4108 33.8096 12.4108 25.3958C12.4108 22.9446 13.25 20.9792 14.6854 19.4113C14.4646 18.8592 13.6917 16.5625 14.9063 13.5813C14.9063 13.5813 16.7613 12.985 20.9792 15.8338C22.7238 15.3479 24.6229 15.105 26.5 15.105C28.3771 15.105 30.2763 15.3479 32.0208 15.8338C36.2388 12.985 38.0938 13.5813 38.0938 13.5813C39.3083 16.5625 38.5354 18.8592 38.3146 19.4113C39.75 20.9792 40.5892 22.9446 40.5892 25.3958C40.5892 33.8317 35.4217 35.6867 30.4971 36.2388C31.2921 36.9233 32.0208 38.2704 32.0208 40.3242V46.375C32.0208 46.9713 32.3742 47.6779 33.5004 47.4792C42.2675 44.52 48.5833 36.2608 48.5833 26.5C48.5833 23.6 48.0121 20.7284 46.9023 18.0491C45.7926 15.3698 44.1659 12.9354 42.1153 10.8847C40.0647 8.8341 37.6302 7.20746 34.9509 6.09767C32.2717 4.98787 29.4 4.41667 26.5 4.41667Z" fill="white"/>
</svg>
