<svg width="55" height="55" viewBox="0 0 55 55" fill="none" xmlns="http://www.w3.org/2000/svg">
<path d="M41.761 7.07209C42.0271 7.3381 42.2382 7.65392 42.3822 8.00152C42.5262 8.34911 42.6003 8.72168 42.6003 9.09792C42.6003 9.47417 42.5262 9.84673 42.3822 10.1943C42.2382 10.5419 42.0271 10.8577 41.761 11.1238L39.1417 13.7408H41.8229C42.9517 13.7408 44.0693 13.9632 45.1121 14.3952C46.1549 14.8272 47.1024 15.4605 47.9004 16.2587C48.6985 17.0569 49.3314 18.0046 49.7632 19.0475C50.1949 20.0904 50.417 21.2081 50.4167 22.3369V39.5244C50.4167 41.8036 49.5113 43.9894 47.8996 45.6011C46.288 47.2127 44.1021 48.1181 41.8229 48.1181H13.1771C10.8979 48.1181 8.71204 47.2127 7.10039 45.6011C5.48875 43.9894 4.58334 41.8036 4.58334 39.5244V22.3369C4.58334 20.0577 5.48875 17.8718 7.10039 16.2602C8.71204 14.6485 10.8979 13.7431 13.1771 13.7431H15.8492L13.2344 11.126C12.7124 10.5859 12.4235 9.86241 12.4298 9.11132C12.4361 8.36023 12.7372 7.64167 13.2681 7.11041C13.7991 6.57914 14.5175 6.27767 15.2686 6.27093C16.0197 6.26419 16.7433 6.55272 17.2838 7.07438L23.3613 13.1519C23.5423 13.3329 23.6936 13.53 23.815 13.7408H31.1781C31.2996 13.53 31.4531 13.3283 31.6342 13.1496L37.7094 7.07209C37.9754 6.80601 38.2912 6.59494 38.6388 6.45093C38.9864 6.30692 39.359 6.2328 39.7352 6.2328C40.1115 6.2328 40.484 6.30692 40.8316 6.45093C41.1792 6.59494 41.495 6.80601 41.761 7.07209ZM41.8229 19.4929H13.1771C12.4541 19.4927 11.7577 19.7658 11.2277 20.2576C10.6976 20.7493 10.3732 21.4234 10.3194 22.1444L10.3125 22.3598V39.5473C10.3125 41.0575 11.4813 42.2927 12.964 42.4027L13.1771 42.4119H41.8229C42.5459 42.4122 43.2423 42.139 43.7724 41.6472C44.3024 41.1555 44.6268 40.4814 44.6806 39.7604L44.6875 39.5473V22.3598C44.6875 20.7785 43.4042 19.4952 41.8229 19.4952M18.9063 25.2244C20.4875 25.2244 21.7708 26.5077 21.7708 28.089V30.9535C21.7708 31.7133 21.469 32.4419 20.9318 32.9791C20.3946 33.5163 19.666 33.8181 18.9063 33.8181C18.1465 33.8181 17.4179 33.5163 16.8807 32.9791C16.3435 32.4419 16.0417 31.7133 16.0417 30.9535V28.089C16.0417 26.5077 17.325 25.2244 18.9063 25.2244ZM36.0938 25.2244C37.675 25.2244 38.9583 26.5077 38.9583 28.089V30.9535C38.9583 31.7133 38.6565 32.4419 38.1193 32.9791C37.5821 33.5163 36.8535 33.8181 36.0938 33.8181C35.334 33.8181 34.6054 33.5163 34.0682 32.9791C33.531 32.4419 33.2292 31.7133 33.2292 30.9535V28.089C33.2292 26.5077 34.5125 25.2244 36.0938 25.2244Z" fill="white"/>
</svg>
