<svg width="53" height="53" viewBox="0 0 53 53" fill="none" xmlns="http://www.w3.org/2000/svg">
<path d="M22.0833 33.125L33.5446 26.5L22.0833 19.875V33.125ZM47.6117 15.8338C47.8987 16.8717 48.0975 18.2629 48.23 20.0296C48.3846 21.7963 48.4508 23.32 48.4508 24.645L48.5833 26.5C48.5833 31.3363 48.23 34.8917 47.6117 37.1663C47.0596 39.1538 45.7787 40.4346 43.7912 40.9867C42.7533 41.2738 40.8542 41.4725 37.9392 41.605C35.0683 41.7596 32.4404 41.8258 30.0112 41.8258L26.5 41.9583C17.2471 41.9583 11.4833 41.605 9.20874 40.9867C7.22124 40.4346 5.94041 39.1538 5.38832 37.1663C5.10124 36.1283 4.90249 34.7371 4.76999 32.9704C4.61541 31.2038 4.54916 29.68 4.54916 28.355L4.41666 26.5C4.41666 21.6638 4.76999 18.1083 5.38832 15.8338C5.94041 13.8463 7.22124 12.5654 9.20874 12.0133C10.2467 11.7263 12.1458 11.5275 15.0608 11.395C17.9317 11.2404 20.5596 11.1742 22.9887 11.1742L26.5 11.0417C35.7529 11.0417 41.5167 11.395 43.7912 12.0133C45.7787 12.5654 47.0596 13.8463 47.6117 15.8338Z" fill="white"/>
</svg>
